{
  "asset": {
    "version": "2.0",
    "generator": "THREE.JS GLTFExporter"
  },
  "scenes": [
    {
      "nodes": [
        37
      ],
      "name": "AuxScene"
    }
  ],
  "scene": 0,
  "nodes": [
    {},
    {
      "matrix": [
        1,
        0,
        0,
        0,
        0,
        -2.220446049250313e-16,
        1.0000000000000002,
        0,
        0,
        -1.0000000000000002,
        -2.220446049250313e-16,
        0,
        0,
        0.75,
        -0.5,
        1
      ]
    },
    {
      "matrix": [
        1,
        0,
        0,
        0,
        0,
        -2.220446049250313e-16,
        1.0000000000000002,
        0,
        0,
        -1.0000000000000002,
        -2.220446049250313e-16,
        0,
        0,
        0.75,
        -2.4,
        1
      ]
    },
    {
      "matrix": [
        1,
        0,
        0,
        0,
        0,
        1,
        0,
        0,
        0,
        0,
        1,
        0,
        0,
        1.7,
        -1.3,
        1
      ]
    },
    {
      "matrix": [
        1,
        0,
        0,
        0,
        0,
        1,
        0,
        0,
        0,
        0,
        1,
        0,
        0,
        0.75,
        0,
        1
      ]
    },
    {
      "matrix": [
        1,
        0,
        0,
        0,
        0,
        1,
        0,
        0,
        0,
        0,
        1,
        0,
        0,
        0.75,
        -1.3,
        1
      ]
    },
    {
      "matrix": [
        1,
        0,
        0,
        0,
        0,
        1,
        0,
        0,
        0,
        0,
        1,
        0,
        0,
        2.4,
        -1.3,
        1
      ]
    },
    {
      "mesh": 0
    },
    {
      "children": [
        0,
        1,
        2,
        3,
        4,
        5,
        6,
        7
      ]
    },
    {
      "matrix": [
        1,
        0,
        0,
        0,
        0,
        -2.220446049250313e-16,
        1.0000000000000002,
        0,
        0,
        -1.0000000000000002,
        -2.220446049250313e-16,
        0,
        0,
        0,
        -0.5,
        1
      ]
    },
    {
      "matrix": [
        1,
        0,
        0,
        0,
        0,
        -2.220446049250313e-16,
        1.0000000000000002,
        0,
        0,
        -1.0000000000000002,
        -2.220446049250313e-16,
        0,
        0,
        0,
        -1.2,
        1
      ]
    },
    {
      "matrix": [
        1,
        0,
        0,
        0,
        0,
        -2.220446049250313e-16,
        -1.0000000000000002,
        0,
        0,
        1.0000000000000002,
        -2.220446049250313e-16,
        0,
        0,
        0,
        0.5,
        1
      ]
    },
    {
      "matrix": [
        1,
        0,
        0,
        0,
        0,
        -2.220446049250313e-16,
        -1.0000000000000002,
        0,
        0,
        1.0000000000000002,
        -2.220446049250313e-16,
        0,
        0,
        0,
        1.2,
        1
      ]
    },
    {
      "matrix": [
        -2.220446049250313e-16,
        1.0000000000000002,
        0,
        0,
        -1.0000000000000002,
        -2.220446049250313e-16,
        0,
        0,
        0,
        0,
        1,
        0,
        0.5,
        0,
        0,
        1
      ]
    },
    {
      "matrix": [
        -2.220446049250313e-16,
        1.0000000000000002,
        0,
        0,
        -1.0000000000000002,
        -2.220446049250313e-16,
        0,
        0,
        0,
        0,
        1,
        0,
        1.2,
        0,
        0,
        1
      ]
    },
    {
      "matrix": [
        -2.220446049250313e-16,
        -1.0000000000000002,
        0,
        0,
        1.0000000000000002,
        -2.220446049250313e-16,
        0,
        0,
        0,
        0,
        1,
        0,
        -0.5,
        0,
        0,
        1
      ]
    },
    {
      "matrix": [
        -2.220446049250313e-16,
        -1.0000000000000002,
        0,
        0,
        1.0000000000000002,
        -2.220446049250313e-16,
        0,
        0,
        0,
        0,
        1,
        0,
        -1.2,
        0,
        0,
        1
      ]
    },
    {
      "mesh": 1
    },
    {
      "matrix": [
        0.9467616943892014,
        0,
        -0.32193523267466123,
        0,
        0,
        1,
        0,
        0,
        0.32193523267466123,
        0,
        0.9467616943892014,
        0,
        0,
        2.4,
        -1.3,
        1
      ],
      "children": [
        9,
        10,
        11,
        12,
        13,
        14,
        15,
        16,
        17
      ]
    },
    {
      "children": [
        8,
        18
      ]
    },
    {
      "mesh": 2
    },
    {
      "matrix": [
        1,
        0,
        0,
        0,
        0,
        0.4114,
        0,
        0,
        0,
        0,
        1,
        0,
        0,
        -1,
        -0.052200000000000024,
        1
      ],
      "children": [
        20
      ]
    },
    {
      "matrix": [
        1,
        0,
        0,
        0,
        0,
        1,
        0,
        0,
        0,
        0,
        1,
        0,
        0,
        0.0675,
        0,
        1
      ],
      "children": [
        21
      ]
    },
    {
      "mesh": 3
    },
    {
      "matrix": [
        1,
        0,
        0,
        0,
        0,
        0.38453333333333334,
        0,
        0,
        0,
        0,
        1,
        0,
        0,
        -1,
        -0.276875,
        1
      ],
      "children": [
        23
      ]
    },
    {
      "matrix": [
        1,
        0,
        0,
        0,
        0,
        1,
        0,
        0,
        0,
        0,
        1,
        0,
        0,
        -0.0991428571428572,
        0,
        1
      ],
      "children": [
        24
      ]
    },
    {
      "mesh": 4
    },
    {
      "matrix": [
        1,
        0,
        0,
        0,
        0,
        0.4114,
        0,
        0,
        0,
        0,
        1,
        0,
        0,
        -1,
        -0.052200000000000024,
        1
      ],
      "children": [
        26
      ]
    },
    {
      "matrix": [
        1,
        0,
        0,
        0,
        0,
        1,
        0,
        0,
        0,
        0,
        1,
        0,
        0,
        0.0675,
        0,
        1
      ],
      "children": [
        27
      ]
    },
    {
      "mesh": 5
    },
    {
      "matrix": [
        1,
        0,
        0,
        0,
        0,
        0.4076000000000001,
        0,
        0,
        0,
        0,
        1,
        0,
        0,
        -1,
        -0.176875,
        1
      ],
      "children": [
        29
      ]
    },
    {
      "matrix": [
        1,
        0,
        0,
        0,
        0,
        1,
        0,
        0,
        0,
        0,
        1,
        0,
        0,
        0.19240000000000002,
        0,
        1
      ],
      "children": [
        30
      ]
    },
    {
      "mesh": 6
    },
    {
      "matrix": [
        1,
        0,
        0,
        0,
        0,
        0.4076000000000001,
        0,
        0,
        0,
        0,
        1,
        0,
        0,
        -1,
        -0.176875,
        1
      ],
      "children": [
        32
      ]
    },
    {
      "matrix": [
        1,
        0,
        0,
        0,
        0,
        1,
        0,
        0,
        0,
        0,
        1,
        0,
        0,
        -0.5933333333333333,
        0,
        1
      ],
      "children": [
        33
      ]
    },
    {
      "children": [
        22,
        25,
        28,
        31,
        34
      ]
    },
    {
      "children": [
        19,
        35
      ]
    },
    {
      "matrix": [
        0.12,
        0,
        0,
        0,
        0,
        0.12,
        0,
        0,
        0,
        0,
        0.12,
        0,
        0,
        0,
        -2,
        1
      ],
      "children": [
        36
      ]
    }
  ],
  "meshes": [
    {
      "primitives": [
        {
          "mode": 4,
          "attributes": {
            "POSITION": 0,
            "NORMAL": 1,
            "COLOR_0": 2,
            "TEXCOORD_0": 3
          },
          "material": 0
        }
      ]
    },
    {
      "primitives": [
        {
          "mode": 4,
          "attributes": {
            "POSITION": 4,
            "NORMAL": 5,
            "COLOR_0": 6,
            "TEXCOORD_0": 7
          },
          "material": 1
        }
      ]
    },
    {
      "primitives": [
        {
          "mode": 4,
          "attributes": {
            "POSITION": 8,
            "NORMAL": 9,
            "COLOR_0": 10,
            "TEXCOORD_0": 11
          },
          "material": 2
        }
      ]
    },
    {
      "primitives": [
        {
          "mode": 4,
          "attributes": {
            "POSITION": 12,
            "NORMAL": 13,
            "COLOR_0": 14,
            "TEXCOORD_0": 15
          },
          "material": 3
        }
      ]
    },
    {
      "primitives": [
        {
          "mode": 4,
          "attributes": {
            "POSITION": 16,
            "NORMAL": 17,
            "COLOR_0": 18,
            "TEXCOORD_0": 19
          },
          "material": 4
        }
      ]
    },
    {
      "primitives": [
        {
          "mode": 4,
          "attributes": {
            "POSITION": 20,
            "NORMAL": 21,
            "COLOR_0": 22,
            "TEXCOORD_0": 23
          },
          "material": 5
        }
      ]
    },
    {
      "primitives": [
        {
          "mode": 4,
          "attributes": {
            "POSITION": 24,
            "NORMAL": 25,
            "COLOR_0": 26,
            "TEXCOORD_0": 27
          },
          "material": 6
        }
      ]
    }
  ],
  "materials": [
    {
      "pbrMetallicRoughness": {
        "metallicFactor": 0,
        "roughnessFactor": 0.5
      }
    },
    {
      "pbrMetallicRoughness": {
        "metallicFactor": 0,
        "roughnessFactor": 0.5
      }
    },
    {
      "pbrMetallicRoughness": {
        "baseColorFactor": [
          0.5294117647058824,
          0.807843137254902,
          0.9803921568627451,
          1
        ],
        "metallicFactor": 0,
        "roughnessFactor": 0.5
      }
    },
    {
      "pbrMetallicRoughness": {
        "baseColorFactor": [
          0,
          0.7490196078431373,
          1,
          1
        ],
        "metallicFactor": 0,
        "roughnessFactor": 0.5
      }
    },
    {
      "pbrMetallicRoughness": {
        "baseColorFactor": [
          0.5294117647058824,
          0.807843137254902,
          0.9803921568627451,
          1
        ],
        "metallicFactor": 0,
        "roughnessFactor": 0.5
      }
    },
    {
      "pbrMetallicRoughness": {
        "baseColorFactor": [
          0,
          0.7490196078431373,
          1,
          1
        ],
        "metallicFactor": 0,
        "roughnessFactor": 0.5
      }
    },
    {
      "pbrMetallicRoughness": {
        "baseColorFactor": [
          0.11764705882352941,
          0.5647058823529412,
          1,
          1
        ],
        "metallicFactor": 0,
        "roughnessFactor": 0.5
      }
    }
  ],
  "accessors": [
    {
      "bufferView": 0,
      "componentType": 5126,
      "count": 4032,
      "max": [
        0.7403332591056824,
        2.9000000953674316,
        0.4000000059604645
      ],
      "min": [
        -0.7878462076187134,
        -0.7850000262260437,
        -2.9000000953674316
      ],
      "type": "VEC3"
    },
    {
      "bufferView": 1,
      "componentType": 5126,
      "count": 4032,
      "max": [
        0.9254165887832642,
        1,
        1
      ],
      "min": [
        -0.9848077297210693,
        -1,
        -1
      ],
      "type": "VEC3"
    },
    {
      "bufferView": 2,
      "componentType": 5126,
      "count": 4032,
      "max": [
        0.8549019694328308,
        0.6470588445663452,
        0.125490203499794
      ],
      "min": [
        0.8549019694328308,
        0.6470588445663452,
        0.125490203499794
      ],
      "type": "VEC3"
    },
    {
      "bufferView": 3,
      "componentType": 5126,
      "count": 4032,
      "max": [
        1,
        1
      ],
      "min": [
        0,
        0
      ],
      "type": "VEC2"
    },
    {
      "bufferView": 4,
      "componentType": 5126,
      "count": 4464,
      "max": [
        1.600000023841858,
        0.3939231038093567,
        1.600000023841858
      ],
      "min": [
        -1.600000023841858,
        -0.3939231038093567,
        -1.600000023841858
      ],
      "type": "VEC3"
    },
    {
      "bufferView": 5,
      "componentType": 5126,
      "count": 4464,
      "max": [
        1,
        1,
        1
      ],
      "min": [
        -1,
        -1,
        -1
      ],
      "type": "VEC3"
    },
    {
      "bufferView": 6,
      "componentType": 5126,
      "count": 4464,
      "max": [
        0.8549019694328308,
        0.6470588445663452,
        0.125490203499794
      ],
      "min": [
        0.8549019694328308,
        0.6470588445663452,
        0.125490203499794
      ],
      "type": "VEC3"
    },
    {
      "bufferView": 7,
      "componentType": 5126,
      "count": 4464,
      "max": [
        1,
        1
      ],
      "min": [
        0,
        0
      ],
      "type": "VEC2"
    },
    {
      "bufferView": 8,
      "componentType": 5126,
      "count": 96,
      "max": [
        0.30000001192092896,
        0.30000001192092896,
        0
      ],
      "min": [
        -0.30000001192092896,
        -0.30000001192092896,
        0
      ],
      "type": "VEC3"
    },
    {
      "bufferView": 9,
      "componentType": 5126,
      "count": 96,
      "max": [
        0,
        0,
        1
      ],
      "min": [
        0,
        0,
        1
      ],
      "type": "VEC3"
    },
    {
      "bufferView": 10,
      "componentType": 5126,
      "count": 96,
      "max": [
        1,
        1,
        1
      ],
      "min": [
        1,
        1,
        1
      ],
      "type": "VEC3"
    },
    {
      "bufferView": 11,
      "componentType": 5126,
      "count": 96,
      "max": [
        1,
        1
      ],
      "min": [
        0,
        0
      ],
      "type": "VEC2"
    },
    {
      "bufferView": 12,
      "componentType": 5126,
      "count": 96,
      "max": [
        0.4000000059604645,
        0.4000000059604645,
        0
      ],
      "min": [
        -0.4000000059604645,
        -0.4000000059604645,
        0
      ],
      "type": "VEC3"
    },
    {
      "bufferView": 13,
      "componentType": 5126,
      "count": 96,
      "max": [
        0,
        0,
        1
      ],
      "min": [
        0,
        0,
        1
      ],
      "type": "VEC3"
    },
    {
      "bufferView": 14,
      "componentType": 5126,
      "count": 96,
      "max": [
        1,
        1,
        1
      ],
      "min": [
        1,
        1,
        1
      ],
      "type": "VEC3"
    },
    {
      "bufferView": 15,
      "componentType": 5126,
      "count": 96,
      "max": [
        1,
        1
      ],
      "min": [
        0,
        0
      ],
      "type": "VEC2"
    },
    {
      "bufferView": 16,
      "componentType": 5126,
      "count": 96,
      "max": [
        0.30000001192092896,
        0.30000001192092896,
        0
      ],
      "min": [
        -0.30000001192092896,
        -0.30000001192092896,
        0
      ],
      "type": "VEC3"
    },
    {
      "bufferView": 17,
      "componentType": 5126,
      "count": 96,
      "max": [
        0,
        0,
        1
      ],
      "min": [
        0,
        0,
        1
      ],
      "type": "VEC3"
    },
    {
      "bufferView": 18,
      "componentType": 5126,
      "count": 96,
      "max": [
        1,
        1,
        1
      ],
      "min": [
        1,
        1,
        1
      ],
      "type": "VEC3"
    },
    {
      "bufferView": 19,
      "componentType": 5126,
      "count": 96,
      "max": [
        1,
        1
      ],
      "min": [
        0,
        0
      ],
      "type": "VEC2"
    },
    {
      "bufferView": 20,
      "componentType": 5126,
      "count": 96,
      "max": [
        0.20000000298023224,
        0.20000000298023224,
        0
      ],
      "min": [
        -0.20000000298023224,
        -0.20000000298023224,
        0
      ],
      "type": "VEC3"
    },
    {
      "bufferView": 21,
      "componentType": 5126,
      "count": 96,
      "max": [
        0,
        0,
        1
      ],
      "min": [
        0,
        0,
        1
      ],
      "type": "VEC3"
    },
    {
      "bufferView": 22,
      "componentType": 5126,
      "count": 96,
      "max": [
        1,
        1,
        1
      ],
      "min": [
        1,
        1,
        1
      ],
      "type": "VEC3"
    },
    {
      "bufferView": 23,
      "componentType": 5126,
      "count": 96,
      "max": [
        1,
        1
      ],
      "min": [
        0,
        0
      ],
      "type": "VEC2"
    },
    {
      "bufferView": 24,
      "componentType": 5126,
      "count": 96,
      "max": [
        0.20000000298023224,
        0.20000000298023224,
        0
      ],
      "min": [
        -0.20000000298023224,
        -0.20000000298023224,
        0
      ],
      "type": "VEC3"
    },
    {
      "bufferView": 25,
      "componentType": 5126,
      "count": 96,
      "max": [
        0,
        0,
        1
      ],
      "min": [
        0,
        0,
        1
      ],
      "type": "VEC3"
    },
    {
      "bufferView": 26,
      "componentType": 5126,
      "count": 96,
      "max": [
        1,
        1,
        1
      ],
      "min": [
        1,
        1,
        1
      ],
      "type": "VEC3"
    },
    {
      "bufferView": 27,
      "componentType": 5126,
      "count": 96,
      "max": [
        1,
        1
      ],
      "min": [
        0,
        0
      ],
      "type": "VEC2"
    }
  ],
  "bufferViews": [
    {
      "buffer": 0,
      "byteOffset": 0,
      "byteLength": 48384,
      "byteStride": 12,
      "target": 34962
    },
    {
      "buffer": 0,
      "byteOffset": 48384,
      "byteLength": 48384,
      "byteStride": 12,
      "target": 34962
    },
    {
      "buffer": 0,
      "byteOffset": 96768,
      "byteLength": 48384,
      "byteStride": 12,
      "target": 34962
    },
    {
      "buffer": 0,
      "byteOffset": 145152,
      "byteLength": 32256,
      "byteStride": 8,
      "target": 34962
    },
    {
      "buffer": 0,
      "byteOffset": 177408,
      "byteLength": 53568,
      "byteStride": 12,
      "target": 34962
    },
    {
      "buffer": 0,
      "byteOffset": 230976,
      "byteLength": 53568,
      "byteStride": 12,
      "target": 34962
    },
    {
      "buffer": 0,
      "byteOffset": 284544,
      "byteLength": 53568,
      "byteStride": 12,
      "target": 34962
    },
    {
      "buffer": 0,
      "byteOffset": 338112,
      "byteLength": 35712,
      "byteStride": 8,
      "target": 34962
    },
    {
      "buffer": 0,
      "byteOffset": 373824,
      "byteLength": 1152,
      "byteStride": 12,
      "target": 34962
    },
    {
      "buffer": 0,
      "byteOffset": 374976,
      "byteLength": 1152,
      "byteStride": 12,
      "target": 34962
    },
    {
      "buffer": 0,
      "byteOffset": 376128,
      "byteLength": 1152,
      "byteStride": 12,
      "target": 34962
    },
    {
      "buffer": 0,
      "byteOffset": 377280,
      "byteLength": 768,
      "byteStride": 8,
      "target": 34962
    },
    {
      "buffer": 0,
      "byteOffset": 378048,
      "byteLength": 1152,
      "byteStride": 12,
      "target": 34962
    },
    {
      "buffer": 0,
      "byteOffset": 379200,
      "byteLength": 1152,
      "byteStride": 12,
      "target": 34962
    },
    {
      "buffer": 0,
      "byteOffset": 380352,
      "byteLength": 1152,
      "byteStride": 12,
      "target": 34962
    },
    {
      "buffer": 0,
      "byteOffset": 381504,
      "byteLength": 768,
      "byteStride": 8,
      "target": 34962
    },
    {
      "buffer": 0,
      "byteOffset": 382272,
      "byteLength": 1152,
      "byteStride": 12,
      "target": 34962
    },
    {
      "buffer": 0,
      "byteOffset": 383424,
      "byteLength": 1152,
      "byteStride": 12,
      "target": 34962
    },
    {
      "buffer": 0,
      "byteOffset": 384576,
      "byteLength": 1152,
      "byteStride": 12,
      "target": 34962
    },
    {
      "buffer": 0,
      "byteOffset": 385728,
      "byteLength": 768,
      "byteStride": 8,
      "target": 34962
    },
    {
      "buffer": 0,
      "byteOffset": 386496,
      "byteLength": 1152,
      "byteStride": 12,
      "target": 34962
    },
    {
      "buffer": 0,
      "byteOffset": 387648,
      "byteLength": 1152,
      "byteStride": 12,
      "target": 34962
    },
    {
      "buffer": 0,
      "byteOffset": 388800,
      "byteLength": 1152,
      "byteStride": 12,
      "target": 34962
    },
    {
      "buffer": 0,
      "byteOffset": 389952,
      "byteLength": 768,
      "byteStride": 8,
      "target": 34962
    },
    {
      "buffer": 0,
      "byteOffset": 390720,
      "byteLength": 1152,
      "byteStride": 12,
      "target": 34962
    },
    {
      "buffer": 0,
      "byteOffset": 391872,
      "byteLength": 1152,
      "byteStride": 12,
      "target": 34962
    },
    {
      "buffer": 0,
      "byteOffset": 393024,
      "byteLength": 1152,
      "byteStride": 12,
      "target": 34962
    },
    {
      "buffer": 0,
      "byteOffset": 394176,
      "byteLength": 768,
      "byteStride": 8,
      "target": 34962
    }
  ],
  "buffers": [
    {
      "byteLength": 394944,
      "uri": "data:application/octet-stream;base64,"
    }
  ]
}